<?xml version="1.0" encoding="UTF-8"?>
<svg id="Layer_2" xmlns="http://www.w3.org/2000/svg" version="1.1" viewBox="0 0 161.3 114.7">
  <!-- Generator: Adobe Illustrator 30.0.0, SVG Export Plug-In . SVG Version: 2.1.1 Build 123)  -->
  <defs>
    <style>
      .st0 {
        fill: #fff;
      }

      .st1 {
        opacity: .8;
      }

      .st2 {
        opacity: .8;
      }

      .st3 {
        opacity: .7;
      }
    </style>
  </defs>
  <g id="Layer_1-2">
    <g>
      <g class="st2">
        <polygon class="st0" points="161.3 57.7 129.4 114.7 84.3 114.7 116.2 57.7 84.3 .6 129.4 .6 161.3 57.7"/>
      </g>
      <g class="st3">
        <path class="st0" d="M91.1,53c2.6-1.4,5.8-.5,7.1,2.1,1.4,2.5.5,5.8-2.1,7.1-2.6,1.4-5.8.5-7.1-2.1-1.4-2.5-.5-5.8,2.1-7.1Z"/>
        <path class="st0" d="M84,40.2c2.6-1.4,5.8-.5,7.1,2.1,1.4,2.5.5,5.8-2.1,7.1-2.6,1.4-5.8.5-7.1-2.1-1.4-2.5-.5-5.8,2.1-7.1Z"/>
        <path class="st0" d="M77,27.3c2.6-1.4,5.8-.5,7.1,2.1,1.4,2.5.5,5.8-2.1,7.1-2.6,1.4-5.8.5-7.1-2.1-1.4-2.5-.5-5.8,2.1-7.1Z"/>
        <path class="st0" d="M69.9,14.4c2.6-1.4,5.8-.5,7.1,2.1,1.4,2.5.5,5.8-2.1,7.1-2.6,1.4-5.8.5-7.1-2.1-1.4-2.5-.5-5.8,2.1-7.1Z"/>
        <path class="st0" d="M62.9,1.6c2.6-1.4,5.8-.5,7.1,2.1,1.4,2.6.5,5.8-2.1,7.1-2.6,1.4-5.8.5-7.1-2.1-1.4-2.6-.5-5.8,2.1-7.1Z"/>
        <path class="st0" d="M84,75.2c2.6,1.4,5.8.5,7.1-2.1,1.4-2.6.5-5.8-2.1-7.1-2.6-1.4-5.8-.5-7.1,2.1-1.4,2.6-.5,5.8,2.1,7.1Z"/>
        <path class="st0" d="M77,88c2.6,1.4,5.8.5,7.1-2.1,1.4-2.6.5-5.8-2.1-7.1-2.6-1.4-5.8-.5-7.1,2.1-1.4,2.6-.5,5.8,2.1,7.1Z"/>
        <path class="st0" d="M69.9,100.9c2.6,1.4,5.8.5,7.1-2.1,1.4-2.6.5-5.8-2.1-7.1-2.6-1.4-5.8-.5-7.1,2.1-1.4,2.6-.5,5.8,2.1,7.1Z"/>
        <path class="st0" d="M62.9,113.8c2.6,1.4,5.8.5,7.1-2.1,1.4-2.6.5-5.8-2.1-7.1-2.6-1.4-5.8-.5-7.1,2.1-1.4,2.6-.5,5.8,2.1,7.1Z"/>
      </g>
      <g class="st1">
        <path class="st0" d="M64,53c2.6-1.4,5.8-.5,7.1,2.1,1.4,2.5.5,5.8-2.1,7.1-2.6,1.4-5.8.5-7.1-2.1-1.4-2.5-.5-5.8,2.1-7.1Z"/>
        <path class="st0" d="M57,40.2c2.5-1.4,5.8-.5,7.1,2.1,1.4,2.5.5,5.8-2.1,7.1-2.5,1.4-5.8.5-7.1-2.1-1.4-2.5-.5-5.8,2.1-7.1Z"/>
        <path class="st0" d="M49.9,27.3c2.5-1.4,5.8-.5,7.1,2.1,1.4,2.5.5,5.8-2.1,7.1-2.5,1.4-5.8.5-7.1-2.1-1.4-2.5-.5-5.8,2.1-7.1Z"/>
        <path class="st0" d="M42.9,14.4c2.5-1.4,5.8-.5,7.1,2.1,1.4,2.5.5,5.8-2.1,7.1-2.5,1.4-5.8.5-7.1-2.1-1.4-2.5-.5-5.8,2.1-7.1Z"/>
        <path class="st0" d="M35.8,1.6c2.5-1.4,5.8-.5,7.1,2.1,1.4,2.6.5,5.8-2.1,7.1-2.5,1.4-5.8.5-7.1-2.1-1.4-2.6-.5-5.8,2.1-7.1Z"/>
        <path class="st0" d="M57,75.2c2.5,1.4,5.8.5,7.1-2.1,1.4-2.6.5-5.8-2.1-7.1-2.5-1.4-5.8-.5-7.1,2.1-1.4,2.6-.5,5.8,2.1,7.1Z"/>
        <path class="st0" d="M49.9,88c2.5,1.4,5.8.5,7.1-2.1,1.4-2.6.5-5.8-2.1-7.1-2.5-1.4-5.8-.5-7.1,2.1-1.4,2.6-.5,5.8,2.1,7.1Z"/>
        <path class="st0" d="M42.9,100.9c2.5,1.4,5.8.5,7.1-2.1,1.4-2.6.5-5.8-2.1-7.1-2.5-1.4-5.8-.5-7.1,2.1-1.4,2.6-.5,5.8,2.1,7.1Z"/>
        <path class="st0" d="M35.8,113.8c2.5,1.4,5.8.5,7.1-2.1,1.4-2.6.5-5.8-2.1-7.1-2.5-1.4-5.8-.5-7.1,2.1-1.4,2.6-.5,5.8,2.1,7.1Z"/>
      </g>
      <g>
        <path class="st0" d="M30.9,52.1c2.5-1.4,5.8-.5,7.1,2.1,1.4,2.5.5,5.8-2.1,7.1-2.5,1.4-5.8.5-7.1-2.1-1.4-2.5-.5-5.8,2.1-7.1Z"/>
        <path class="st0" d="M23.9,39.2c2.5-1.4,5.8-.5,7.1,2.1,1.4,2.5.5,5.8-2.1,7.1-2.5,1.4-5.8.5-7.1-2.1-1.4-2.5-.5-5.8,2.1-7.1Z"/>
        <path class="st0" d="M16.8,26.4c2.5-1.4,5.8-.5,7.1,2.1,1.4,2.5.5,5.8-2.1,7.1-2.5,1.4-5.8.5-7.1-2.1-1.4-2.5-.5-5.8,2.1-7.1Z"/>
        <path class="st0" d="M9.8,13.5c2.6-1.4,5.8-.5,7.1,2.1,1.4,2.5.5,5.8-2.1,7.1-2.6,1.4-5.8.5-7.1-2.1-1.4-2.5-.5-5.8,2.1-7.1Z"/>
        <path class="st0" d="M2.7.6c2.5-1.4,5.7-.5,7.1,2.1,1.4,2.6.5,5.8-2.1,7.1-2.6,1.4-5.8.5-7.1-2.1C-.8,5.2.2,2,2.7.6Z"/>
        <path class="st0" d="M23.9,74.2c2.5,1.4,5.8.5,7.1-2.1,1.4-2.6.5-5.8-2.1-7.1-2.5-1.4-5.8-.5-7.1,2.1-1.4,2.6-.5,5.8,2.1,7.1Z"/>
        <path class="st0" d="M16.8,87.1c2.5,1.4,5.8.5,7.1-2.1,1.4-2.6.5-5.8-2.1-7.1-2.5-1.4-5.8-.5-7.1,2.1-1.4,2.6-.5,5.8,2.1,7.1Z"/>
        <path class="st0" d="M9.8,100c2.6,1.4,5.8.5,7.1-2.1,1.4-2.6.5-5.8-2.1-7.1-2.6-1.4-5.8-.5-7.1,2.1-1.4,2.6-.5,5.8,2.1,7.1Z"/>
        <path class="st0" d="M2.7,112.8c2.5,1.4,5.7.5,7.1-2.1,1.4-2.6.5-5.8-2.1-7.1-2.6-1.4-5.8-.5-7.1,2.1-1.4,2.6-.5,5.8,2.1,7.1Z"/>
      </g>
    </g>
  </g>
</svg>